<?xml version="1.0" encoding="UTF-8" standalone="no"?>
<!DOCTYPE svg PUBLIC "-//W3C//DTD SVG 1.1//EN"
 "http://www.w3.org/Graphics/SVG/1.1/DTD/svg11.dtd">
<!-- Generated by graphviz version 2.38.0 (20140413.2041)
 -->
<!-- Title: MemoryNetworks Pages: 1 -->
<svg width="354pt" height="140pt"
 viewBox="0.00 0.00 353.98 140.00" xmlns="http://www.w3.org/2000/svg" xmlns:xlink="http://www.w3.org/1999/xlink">
<g id="graph0" class="graph" transform="scale(1 1) rotate(0) translate(4 136)">
<title>MemoryNetworks</title>
<polygon fill="white" stroke="none" points="-4,4 -4,-136 349.985,-136 349.985,4 -4,4"/>
<!-- start -->
<g id="node1" class="node"><title>start</title>
<polygon fill="none" stroke="black" points="55.977,-132 11.4597,-132 0.0076626,-72 44.525,-72 55.977,-132"/>
<text text-anchor="middle" x="27.9923" y="-97" font-family="Times,serif" font-size="20.00">x</text>
</g>
<!-- input -->
<g id="node2" class="node"><title>input</title>
<polygon fill="none" stroke="black" points="127.992,-120 73.9923,-120 73.9923,-84 127.992,-84 127.992,-120"/>
<text text-anchor="middle" x="100.992" y="-97" font-family="Times,serif" font-size="20.00">I</text>
</g>
<!-- start&#45;&gt;input -->
<g id="edge1" class="edge"><title>start&#45;&gt;input</title>
<path fill="none" stroke="black" d="M50.5197,-102C54.8818,-102 59.244,-102 63.6061,-102"/>
<polygon fill="black" stroke="black" points="63.7845,-105.5 73.7844,-102 63.7844,-98.5001 63.7845,-105.5"/>
</g>
<!-- general -->
<g id="node3" class="node"><title>general</title>
<polygon fill="none" stroke="black" points="127.992,-36 73.9923,-36 73.9923,-0 127.992,-0 127.992,-36"/>
<text text-anchor="middle" x="100.992" y="-13" font-family="Times,serif" font-size="20.00">G</text>
</g>
<!-- input&#45;&gt;general -->
<g id="edge2" class="edge"><title>input&#45;&gt;general</title>
<path fill="none" stroke="black" d="M100.992,-83.6099C100.992,-72.7743 100.992,-58.6012 100.992,-46.2913"/>
<polygon fill="black" stroke="black" points="104.492,-46.0838 100.992,-36.0838 97.4924,-46.0839 104.492,-46.0838"/>
</g>
<!-- output -->
<g id="node4" class="node"><title>output</title>
<polygon fill="none" stroke="black" points="199.992,-120 145.992,-120 145.992,-84 199.992,-84 199.992,-120"/>
<text text-anchor="middle" x="172.992" y="-97" font-family="Times,serif" font-size="20.00">O</text>
</g>
<!-- input&#45;&gt;output -->
<g id="edge5" class="edge"><title>input&#45;&gt;output</title>
<path fill="none" stroke="black" d="M128.274,-102C130.73,-102 133.187,-102 135.643,-102"/>
<polygon fill="black" stroke="black" points="135.742,-105.5 145.742,-102 135.742,-98.5001 135.742,-105.5"/>
</g>
<!-- memory -->
<g id="node6" class="node"><title>memory</title>
<polygon fill="lightgrey" stroke="black" points="199.992,-36 149.992,-36 145.992,-32 145.992,-0 195.992,-0 199.992,-4 199.992,-36"/>
<polyline fill="none" stroke="black" points="195.992,-32 145.992,-32 "/>
<polyline fill="none" stroke="black" points="195.992,-32 195.992,-0 "/>
<polyline fill="none" stroke="black" points="195.992,-32 199.992,-36 "/>
<text text-anchor="start" x="164.492" y="-14" font-family="Times,serif" font-weight="bold" font-size="20.00">m</text>
</g>
<!-- general&#45;&gt;memory -->
<g id="edge3" class="edge"><title>general&#45;&gt;memory</title>
<path fill="none" stroke="black" d="M128.274,-5.29184C130.73,-4.84564 133.187,-4.58802 135.643,-4.51897"/>
<polygon fill="black" stroke="black" points="135.502,-8.01842 145.742,-5.29744 136.04,-1.03913 135.502,-8.01842"/>
</g>
<!-- response -->
<g id="node5" class="node"><title>response</title>
<polygon fill="none" stroke="black" points="271.992,-120 217.992,-120 217.992,-84 271.992,-84 271.992,-120"/>
<text text-anchor="middle" x="244.992" y="-97" font-family="Times,serif" font-size="20.00">R</text>
</g>
<!-- output&#45;&gt;response -->
<g id="edge7" class="edge"><title>output&#45;&gt;response</title>
<path fill="none" stroke="black" d="M200.274,-102C202.73,-102 205.187,-102 207.643,-102"/>
<polygon fill="black" stroke="black" points="207.742,-105.5 217.742,-102 207.742,-98.5001 207.742,-105.5"/>
</g>
<!-- end -->
<g id="node7" class="node"><title>end</title>
<polygon fill="none" stroke="black" points="345.977,-132 301.46,-132 290.008,-72 334.525,-72 345.977,-132"/>
<text text-anchor="middle" x="317.992" y="-97" font-family="Times,serif" font-size="20.00">r</text>
</g>
<!-- response&#45;&gt;end -->
<g id="edge8" class="edge"><title>response&#45;&gt;end</title>
<path fill="none" stroke="black" d="M272.082,-102C276.454,-102 280.825,-102 285.196,-102"/>
<polygon fill="black" stroke="black" points="285.396,-105.5 295.396,-102 285.396,-98.5001 285.396,-105.5"/>
</g>
<!-- memory&#45;&gt;general -->
<g id="edge4" class="edge"><title>memory&#45;&gt;general</title>
<path fill="none" stroke="black" d="M145.742,-30.7026C143.285,-31.1503 140.829,-31.4095 138.372,-31.4802"/>
<polygon fill="black" stroke="black" points="138.511,-27.9807 128.274,-30.7082 137.978,-34.9603 138.511,-27.9807"/>
</g>
<!-- memory&#45;&gt;output -->
<g id="edge6" class="edge"><title>memory&#45;&gt;output</title>
<path fill="none" stroke="black" d="M172.992,-36.0838C172.992,-46.8559 172.992,-61.0146 172.992,-73.3593"/>
<polygon fill="black" stroke="black" points="169.492,-73.6099 172.992,-83.6099 176.492,-73.6099 169.492,-73.6099"/>
</g>
</g>
</svg>
